HIERARCHY
ROOT Hips
{
	OFFSET 0.000000 0.000000 0.000000
	CHANNELS 6 Xposition Yposition Zposition Xrotation Yrotation Zrotation
	JOINT Chest
	{
		OFFSET 0.000000 0.009282 11.569106
		CHANNELS 6 Xposition Yposition Zposition Xrotation Yrotation Zrotation
		JOINT Chest2
		{
			OFFSET 0.000000 -0.016863 9.269641
			CHANNELS 6 Xposition Yposition Zposition Xrotation Yrotation Zrotation
			JOINT Chest3
			{
				OFFSET 0.000000 0.000000 8.374491
				CHANNELS 6 Xposition Yposition Zposition Xrotation Yrotation Zrotation
				JOINT Chest4
				{
					OFFSET 0.000000 0.000000 8.374493
					CHANNELS 6 Xposition Yposition Zposition Xrotation Yrotation Zrotation
					JOINT Neck
					{
						OFFSET 0.000000 -0.000001 12.152554
						CHANNELS 6 Xposition Yposition Zposition Xrotation Yrotation Zrotation
						JOINT Head
						{
							OFFSET 0.000000 -0.040100 7.802319
							CHANNELS 6 Xposition Yposition Zposition Xrotation Yrotation Zrotation
							End Site
							{
								OFFSET 0.000000 -0.020946 14.853096
							}
						}
					}
					JOINT RightCollar
					{
						OFFSET -2.894404 0.000000 6.791374
						CHANNELS 6 Xposition Yposition Zposition Xrotation Yrotation Zrotation
						JOINT RightShoulder
						{
							OFFSET -13.574684 0.000000 0.000000
							CHANNELS 6 Xposition Yposition Zposition Xrotation Yrotation Zrotation
							JOINT RightElbow
							{
								OFFSET -23.923903 0.000000 0.000000
								CHANNELS 6 Xposition Yposition Zposition Xrotation Yrotation Zrotation
								JOINT RightWrist
								{
									OFFSET -19.846718 -0.012765 0.000000
									CHANNELS 6 Xposition Yposition Zposition Xrotation Yrotation Zrotation
									End Site
									{
										OFFSET -14.973145 0.000000 0.000000
									}
								}
							}
						}
					}
					JOINT LeftCollar
					{
						OFFSET 2.894404 0.000000 6.791374
						CHANNELS 6 Xposition Yposition Zposition Xrotation Yrotation Zrotation
						JOINT LeftShoulder
						{
							OFFSET 13.574684 0.000000 0.000000
							CHANNELS 6 Xposition Yposition Zposition Xrotation Yrotation Zrotation
							JOINT LeftElbow
							{
								OFFSET 23.923903 0.000000 0.000000
								CHANNELS 6 Xposition Yposition Zposition Xrotation Yrotation Zrotation
								JOINT LeftWrist
								{
									OFFSET 19.846718 -0.012765 0.000000
									CHANNELS 6 Xposition Yposition Zposition Xrotation Yrotation Zrotation
									End Site
									{
										OFFSET 14.973145 0.000000 0.000000
									}
								}
							}
						}
					}
				}
			}
		}
	}
	JOINT RightHip
	{
		OFFSET -9.469263 -0.004642 0.045487
		CHANNELS 6 Xposition Yposition Zposition Xrotation Yrotation Zrotation
		JOINT RightKnee
		{
			OFFSET 0.000000 -0.002666 -40.478676
			CHANNELS 6 Xposition Yposition Zposition Xrotation Yrotation Zrotation
			JOINT RightAnkle
			{
				OFFSET 0.000000 -0.049110 -35.224068
				CHANNELS 6 Xposition Yposition Zposition Xrotation Yrotation Zrotation
				JOINT RightToe
				{
					OFFSET 0.000000 -12.539530 -6.151390
					CHANNELS 6 Xposition Yposition Zposition Xrotation Yrotation Zrotation
					End Site
					{
						OFFSET 0.000000 -5.044995 -1.291870
					}
				}
			}
		}
	}
	JOINT LeftHip
	{
		OFFSET 9.469263 -0.004642 0.045487
		CHANNELS 6 Xposition Yposition Zposition Xrotation Yrotation Zrotation
		JOINT LeftKnee
		{
			OFFSET 0.000000 -0.002666 -40.478676
			CHANNELS 6 Xposition Yposition Zposition Xrotation Yrotation Zrotation
			JOINT LeftAnkle
			{
				OFFSET 0.000000 -0.049110 -35.224068
				CHANNELS 6 Xposition Yposition Zposition Xrotation Yrotation Zrotation
				JOINT LeftToe
				{
					OFFSET 0.000000 -12.539530 -6.151390
					CHANNELS 6 Xposition Yposition Zposition Xrotation Yrotation Zrotation
					End Site
					{
						OFFSET 0.000000 -5.044995 -1.291870
					}
				}
			}
		}
	}
}
MOTION
Frames: 4
Frame Time: 0.016667
-11.181459 -5.819027 83.001640 4.637067 8.804138 -114.862335 -0.000001 0.009283 11.569104 3.907272 -0.440090 -1.108329 -0.000000 -0.016864 9.269644 1.734774 -0.183279 -0.484749 0.000000 0.000002 8.374475 1.734776 -0.183279 -0.484752 0.000000 -0.000000 8.374496 1.301226 -0.136085 -0.364083 0.000000 -0.000004 12.152555 19.745508 -0.290251 -0.143853 -0.000000 -0.040101 7.802322 0.483584 -0.485988 -0.353021 -2.894404 0.000000 6.791366 2.533961 -4.214505 3.183778 -13.574682 0.000002 -0.000004 30.021116 -54.906439 78.565767 -23.923885 -0.000020 -0.000004 38.232722 -12.735778 75.915230 -19.846716 -0.012757 0.000009 -47.408394 43.663999 65.255211 2.894405 -0.000000 6.791369 3.106766 9.167879 -5.667574 13.574682 0.000000 0.000016 21.561963 52.356887 -68.052631 23.923887 -0.000008 -0.000007 42.447764 20.782541 -54.744933 19.846720 -0.012773 0.000010 -49.183577 -39.615254 -76.541969 -9.469264 -0.004640 0.045488 12.257373 -0.371798 -2.368408 -0.000101 -0.002671 -40.478546 3.068546 0.131823 2.189954 -0.000011 -0.049126 -35.224316 -5.642023 -1.007590 0.205410 -0.000000 -12.539529 -6.151377 0.040779 0.034049 -0.004911 9.469262 -0.004642 0.045490 12.824753 0.172408 1.019149 -0.000135 -0.002670 -40.478603 1.709235 -0.790407 2.853142 0.000030 -0.049120 -35.224293 -4.842503 0.612675 -0.598246 0.000000 -12.539531 -6.151382 0.013438 0.023015 0.000975 
-11.130237 -5.828039 83.002953 4.614108 8.755414 -114.852650 -0.000000 0.009282 11.569109 3.954041 -0.421391 -1.099102 0.000001 -0.016863 9.269639 1.754563 -0.174600 -0.481014 0.000001 0.000001 8.374493 1.754563 -0.174600 -0.481014 -0.000001 0.000001 8.374497 1.316060 -0.129571 -0.361265 0.000001 -0.000001 12.152542 19.548999 -0.271029 -0.068775 0.000001 -0.040101 7.802337 0.118859 -0.473872 -0.210520 -2.894403 -0.000000 6.791372 2.559058 -4.216791 3.179999 -13.574678 -0.000001 0.000003 29.974415 -55.015934 78.513318 -23.923887 -0.000013 -0.000006 38.247704 -13.163915 75.958711 -19.846718 -0.012758 -0.000001 -47.429346 43.785419 65.013449 2.894406 -0.000000 6.791363 3.103658 9.170627 -5.679386 13.574686 0.000002 0.000000 21.477788 52.341929 -67.963210 23.923897 0.000002 -0.000008 42.527671 20.757730 -54.781597 19.846718 -0.012771 0.000009 -49.163599 -39.676449 -76.282312 -9.469264 -0.004641 0.045487 12.169659 -0.381316 -2.360347 -0.000101 -0.002672 -40.478527 3.062747 0.129905 2.174068 -0.000011 -0.049125 -35.224319 -5.604242 -1.009856 0.207315 -0.000000 -12.539532 -6.151380 0.040278 0.036827 -0.004514 9.469263 -0.004642 0.045486 12.737723 0.157483 1.070883 -0.000131 -0.002672 -40.478588 1.699303 -0.784223 2.814921 0.000031 -0.049122 -35.224285 -4.810866 0.617416 -0.616432 0.000001 -12.539533 -6.151381 0.019632 0.018383 0.001299 
-11.085174 -5.836364 83.005287 4.576840 8.680753 -114.832938 -0.000001 0.009281 11.569101 3.983518 -0.407735 -1.091899 0.000000 -0.016866 9.269640 1.766862 -0.168874 -0.478483 -0.000000 0.000000 8.374494 1.766863 -0.168874 -0.478489 0.000000 -0.000001 8.374493 1.325279 -0.125273 -0.359356 -0.000001 -0.000002 12.152569 19.302132 -0.248863 -0.007245 0.000000 -0.040106 7.802299 -0.339378 -0.452487 -0.091961 -2.894405 0.000001 6.791372 2.545393 -4.216256 3.173969 -13.574684 0.000000 -0.000004 29.994093 -55.062680 78.490212 -23.923891 -0.000007 -0.000006 38.251368 -13.578340 75.977488 -19.846722 -0.012767 0.000004 -47.431129 43.875049 64.796242 2.894402 0.000001 6.791375 3.079048 9.181005 -5.679767 13.574683 0.000001 0.000004 21.497763 52.342516 -67.938348 23.923885 -0.000013 0.000007 42.586831 20.731084 -54.772113 19.846722 -0.012770 0.000006 -49.114254 -39.762793 -75.990321 -9.469265 -0.004644 0.045481 12.071395 -0.387922 -2.359261 -0.000098 -0.002671 -40.478539 3.028248 0.127495 2.134875 -0.000011 -0.049125 -35.224319 -5.556153 -1.021741 0.234832 0.000001 -12.539532 -6.151387 0.039394 0.042435 -0.005413 9.469262 -0.004643 0.045484 12.633650 0.142547 1.131893 -0.000130 -0.002670 -40.478596 1.667670 -0.777038 2.752505 0.000029 -0.049121 -35.224293 -4.768416 0.623741 -0.631307 -0.000000 -12.539531 -6.151384 0.023232 0.011667 0.002245 
-11.045551 -5.843559 83.008278 4.527314 8.589691 -114.802202 -0.000001 0.009281 11.569105 3.994709 -0.399082 -1.090953 -0.000000 -0.016864 9.269639 1.771558 -0.165441 -0.478553 0.000000 -0.000000 8.374489 1.771559 -0.165441 -0.478553 0.000001 0.000001 8.374500 1.328799 -0.122695 -0.359400 0.000000 0.000001 12.152543 19.019973 -0.225045 0.037125 0.000002 -0.040097 7.802312 -0.863215 -0.423038 -0.004233 -2.894404 -0.000000 6.791370 2.552539 -4.205111 3.168915 -13.574685 -0.000002 -0.000014 30.024873 -55.066921 78.500040 -23.923899 -0.000009 0.000002 38.248991 -13.953521 75.977911 -19.846714 -0.012749 -0.000001 -47.380315 43.961570 64.544482 2.894404 0.000001 6.791368 3.064460 9.196639 -5.673355 13.574687 -0.000000 0.000000 21.594818 52.337913 -67.968312 23.923903 -0.000002 0.000009 42.600993 20.730445 -54.782185 19.846716 -0.012778 0.000007 -49.011863 -39.905940 -75.589915 -9.469263 -0.004642 0.045480 11.970368 -0.393874 -2.352533 -0.000096 -0.002671 -40.478535 2.967818 0.128104 2.081567 -0.000013 -0.049125 -35.224319 -5.499921 -1.039177 0.259724 0.000002 -12.539533 -6.151384 0.038545 0.048990 -0.006712 9.469263 -0.004642 0.045487 12.520285 0.127420 1.183034 -0.000127 -0.002671 -40.478611 1.621793 -0.762477 2.673928 0.000031 -0.049123 -35.224277 -4.720963 0.629068 -0.630933 0.000000 -12.539532 -6.151388 0.024908 0.001849 0.004276 
